<svg width="16" height="16" viewBox="0 0 16 16" fill="none" xmlns="http://www.w3.org/2000/svg">
<path d="M9.40893 7.99767L15.704 1.71289C16.0956 1.32039 16.0956 0.685242 15.704 0.293675C15.3125 -0.0978917 14.6773 -0.0978917 14.2848 0.293675L8.00002 6.58877L1.71524 0.293675C1.32274 -0.0978917 0.687592 -0.0978917 0.296025 0.293675C-0.0955416 0.685242 -0.0955416 1.32036 0.296025 1.71289L6.59112 7.99767L0.296025 14.2825C0.106798 14.4707 0 14.7256 0 14.9925C0 15.2586 0.106791 15.5143 0.296025 15.7016C0.483379 15.8909 0.739128 15.9977 1.00515 15.9977C1.27214 15.9977 1.52694 15.8909 1.71522 15.7016L8 9.40655L14.2848 15.7016C14.4731 15.8909 14.7279 15.9977 14.9948 15.9977C15.2609 15.9977 15.5166 15.8909 15.704 15.7016C15.8932 15.5143 16 15.2585 16 14.9925C16 14.7255 15.8932 14.4707 15.704 14.2825L9.40893 7.99767Z" fill="#050607"/>
</svg>
