<svg width="24" height="24" viewBox="0 0 24 24" fill="none" xmlns="http://www.w3.org/2000/svg">
<path fill-rule="evenodd" clip-rule="evenodd" d="M7.14973 0H16.8503C20.7926 0 24 3.20735 24 7.14973V16.8503C24 20.7926 20.7926 24 16.8503 24H7.14973C3.20735 24 0 20.7926 0 16.8503V7.14973C0 3.20735 3.20735 0 7.14973 0ZM16.8576 21.6C19.4767 21.6 21.6 19.4767 21.6 16.8576V7.14244C21.6 4.52324 19.4767 2.4 16.8576 2.4H7.14244C4.52329 2.4 2.4 4.52324 2.4 7.14244V16.8576C2.4 19.4767 4.52329 21.6 7.14244 21.6H16.8576ZM5.76 12C5.76 8.55927 8.55926 5.76 12 5.76C15.4407 5.76 18.24 8.55923 18.24 12C18.24 15.4407 15.4407 18.24 12 18.24C8.55926 18.24 5.76 15.4407 5.76 12ZM8.16 12C8.16 14.1208 9.87921 15.84 12 15.84C14.1207 15.84 15.84 14.1207 15.84 12C15.84 9.87921 14.1208 8.16 12 8.16C9.87925 8.16 8.16 9.87921 8.16 12ZM19.68 5.76C19.68 6.55529 19.0353 7.2 18.24 7.2C17.4447 7.2 16.8 6.55529 16.8 5.76C16.8 4.96471 17.4447 4.32 18.24 4.32C19.0353 4.32 19.68 4.96471 19.68 5.76Z" fill="#9D2820"/>
</svg>
