<svg width="24" height="17" viewBox="0 0 24 17" fill="none" xmlns="http://www.w3.org/2000/svg">
<path fill-rule="evenodd" clip-rule="evenodd" d="M23.4984 2.65438C23.2224 1.60966 22.4093 0.786639 21.3767 0.507367C19.505 0 11.9999 0 11.9999 0C11.9999 0 4.49497 0 2.62334 0.507367C1.59072 0.786639 0.777577 1.60966 0.501593 2.65438C0 4.54851 0 8.4999 0 8.4999C0 8.4999 0 12.4515 0.501593 14.3454C0.777577 15.3901 1.59072 16.2134 2.62334 16.4924C4.49497 17 11.9999 17 11.9999 17C11.9999 17 19.505 17 21.3767 16.4924C22.4093 16.2134 23.2224 15.3901 23.4984 14.3454C24 12.4515 24 8.4999 24 8.4999C24 8.4999 24 4.54851 23.4984 2.65438M9.6 12.1428L15.835 8.5001L9.6 4.85697V12.1428" fill="#9D2820"/>
</svg>
