<svg width="24" height="24" viewBox="0 0 24 24" fill="none" xmlns="http://www.w3.org/2000/svg">
<path fill-rule="evenodd" clip-rule="evenodd" d="M2.17099 0H21.829C23.028 0 24 0.972 24 2.17099V21.8289C24 23.028 23.028 24 21.8289 24H2.17099C0.972 24 0 23.028 0 21.8289V2.17099C0 0.972 0.972 0 2.17099 0ZM6.79483 21.355C7.14377 21.355 7.42662 21.0721 7.42662 20.7232V9.4494C7.42662 9.10046 7.14377 8.81761 6.79483 8.81761H4.10544C3.7565 8.81761 3.47365 9.10046 3.47365 9.4494V20.7232C3.47365 21.0721 3.7565 21.355 4.10544 21.355H6.79483ZM5.45014 7.75489C4.0391 7.75489 2.8952 6.61099 2.8952 5.19996C2.8952 3.78892 4.0391 2.64503 5.45014 2.64503C6.86117 2.64503 8.00507 3.78892 8.00507 5.19996C8.00507 6.61099 6.86124 7.75489 5.45014 7.75489ZM20.9004 21.355C21.2212 21.355 21.4813 21.0949 21.4813 20.7741V15.3178V15.2775C21.4814 12.8972 21.4817 8.62844 16.8866 8.62844C14.7998 8.62844 13.8197 9.39236 13.1602 10.3821V9.39851C13.1602 9.07772 12.9001 8.81761 12.5793 8.81761H9.78817C9.46737 8.81761 9.20727 9.07772 9.20727 9.39851V20.7741C9.20727 21.0949 9.46737 21.355 9.78817 21.355H12.5793C12.9002 21.355 13.1602 21.0949 13.1602 20.7741V14.6749C13.2327 13.8554 13.5934 12.0292 15.372 12.0292C17.496 12.0292 17.4539 14.3186 17.4362 15.2829C17.4348 15.3596 17.4335 15.4279 17.4335 15.486V20.7741C17.4335 21.0949 17.6937 21.355 18.0145 21.355H20.9004Z" fill="#9D2820"/>
</svg>
