<svg width="263" height="179" viewBox="0 0 263 179" fill="none" xmlns="http://www.w3.org/2000/svg">
<g clip-path="url(#clip0_579_1588)">
<path d="M226.69 32.39L213.45 19.24H262.01V32.39H226.69Z" fill="#A91F23"/>
<path d="M261.82 112.79V99.65H94.4301L175.03 18.95L201.43 45.4L202.92 46.94L222.82 66.86L203.17 86.54H222.09L232.25 76.36L242.34 86.54H261.7L241.89 66.71L262.01 46.56L243.15 46.51L232.3 57.37L175.02 0L171.71 3.32L171.07 3.92L124.85 50.19L93.5701 18.94L0.0600586 112.79H18.9601L93.6001 37.93L115.38 59.67L62.3201 112.78H93.9801V112.79H261.82Z" fill="#A91F23"/>
<path d="M69.83 177.9H72.9L67.8199 164.71H64.2899L59.2 177.9H62.2899L63.12 175.63H69.0099L69.83 177.9ZM66.0599 167.14L68.2299 173.14H63.86L66.0599 167.14Z" fill="white"/>
<path d="M80.28 177.9H85.48C89.61 177.9 92.48 175.29 92.48 171.32C92.48 167.35 89.61 164.71 85.48 164.71H80.28V177.9ZM83.0901 175.43V167.18H85.48C86.0336 167.14 86.5894 167.219 87.1095 167.413C87.6295 167.607 88.1017 167.911 88.4937 168.304C88.8857 168.697 89.1884 169.169 89.381 169.69C89.5737 170.211 89.6518 170.766 89.61 171.32C89.6254 171.866 89.5288 172.409 89.3264 172.915C89.1241 173.422 88.82 173.882 88.4332 174.267C88.0463 174.652 87.5847 174.954 87.0768 175.154C86.569 175.354 86.0256 175.448 85.48 175.43H83.0901Z" fill="white"/>
<path d="M103.91 177.9H107.43L112.52 164.71H109.31L105.67 174.86L102.01 164.71H98.8101L103.91 177.9Z" fill="white"/>
<path d="M120.86 177.9H123.67V164.71H120.86V177.9Z" fill="white"/>
<path d="M132.49 176.04C133.233 176.751 134.112 177.303 135.075 177.664C136.037 178.025 137.063 178.187 138.09 178.14C141.65 178.14 143.37 176.32 143.37 173.91C143.37 170.98 140.6 170.33 138.43 169.83C136.9 169.48 135.8 169.2 135.8 168.31C135.8 167.42 136.47 166.96 137.74 166.96C139.133 166.959 140.476 167.476 141.51 168.41L143.08 166.35C141.664 165.096 139.82 164.437 137.93 164.51C134.83 164.51 132.93 166.29 132.93 168.51C132.93 171.45 135.7 172.05 137.85 172.51C139.38 172.87 140.52 173.21 140.52 174.19C140.52 174.95 139.77 175.68 138.23 175.68C137.447 175.683 136.672 175.527 135.952 175.221C135.232 174.915 134.581 174.465 134.04 173.9L132.49 176.04Z" fill="white"/>
<path d="M151.76 171.37C151.732 172.278 151.891 173.183 152.228 174.027C152.564 174.871 153.071 175.637 153.716 176.277C154.362 176.917 155.132 177.417 155.979 177.746C156.826 178.075 157.732 178.226 158.64 178.19C159.55 178.229 160.458 178.08 161.307 177.752C162.157 177.424 162.929 176.924 163.577 176.284C164.225 175.644 164.733 174.877 165.071 174.032C165.409 173.186 165.568 172.28 165.54 171.37C165.568 170.46 165.409 169.553 165.071 168.707C164.733 167.861 164.225 167.093 163.577 166.452C162.93 165.812 162.157 165.311 161.308 164.982C160.458 164.653 159.55 164.503 158.64 164.54C157.731 164.505 156.825 164.658 155.978 164.988C155.131 165.318 154.361 165.819 153.716 166.46C153.071 167.101 152.564 167.867 152.228 168.712C151.891 169.556 151.732 170.461 151.76 171.37ZM162.66 171.37C162.706 171.922 162.636 172.478 162.456 173.002C162.275 173.526 161.988 174.007 161.612 174.414C161.236 174.821 160.779 175.146 160.271 175.367C159.763 175.589 159.214 175.702 158.66 175.7C156.23 175.7 154.66 173.82 154.66 171.37C154.66 168.92 156.22 167.03 158.66 167.03C161.1 167.03 162.66 168.84 162.66 171.37Z" fill="white"/>
<path d="M181.31 177.9H184.53L181.53 172.9C182.394 172.688 183.155 172.18 183.682 171.463C184.208 170.746 184.466 169.867 184.41 168.98C184.432 168.401 184.33 167.823 184.113 167.286C183.895 166.748 183.567 166.263 183.148 165.861C182.73 165.46 182.231 165.152 181.685 164.957C181.139 164.762 180.558 164.684 179.98 164.73H173.81V177.92H176.62V173.2H178.68L181.31 177.9ZM181.59 168.9C181.591 169.155 181.539 169.407 181.436 169.641C181.334 169.874 181.184 170.083 180.995 170.255C180.806 170.427 180.584 170.557 180.342 170.637C180.1 170.717 179.844 170.745 179.59 170.72H176.59V167.08H179.59C179.847 167.054 180.107 167.084 180.352 167.166C180.596 167.249 180.821 167.382 181.01 167.558C181.199 167.734 181.349 167.948 181.449 168.187C181.549 168.425 181.597 168.682 181.59 168.94V168.9Z" fill="white"/>
<path d="M191.99 176.04C192.733 176.751 193.612 177.303 194.575 177.664C195.537 178.025 196.563 178.187 197.59 178.14C201.15 178.14 202.87 176.32 202.87 173.91C202.87 170.98 200.1 170.33 197.92 169.83C196.4 169.48 195.29 169.2 195.29 168.31C195.29 167.42 195.97 166.96 197.23 166.96C198.626 166.958 199.973 167.475 201.01 168.41L202.57 166.35C201.159 165.095 199.317 164.435 197.43 164.51C194.32 164.51 192.43 166.29 192.43 168.51C192.43 171.45 195.19 172.05 197.35 172.51C198.87 172.87 200.02 173.21 200.02 174.19C200.02 174.95 199.27 175.68 197.73 175.68C196.946 175.683 196.17 175.526 195.448 175.22C194.726 174.914 194.073 174.465 193.53 173.9L191.99 176.04Z" fill="white"/>
<path d="M262.01 164.71H209.54V177.93H262.01V164.71Z" fill="#A91F23"/>
<path d="M52.5201 164.71H0.0500488V177.93H52.5201V164.71Z" fill="#A91F23"/>
<path d="M52.2 126.37V131.98H54.59C54.8451 131.98 55.0908 132.077 55.2767 132.251C55.4626 132.426 55.5747 132.665 55.59 132.92V145C55.6025 145.139 55.5859 145.278 55.5413 145.41C55.4967 145.542 55.425 145.663 55.3309 145.766C55.2367 145.869 55.1222 145.95 54.9946 146.006C54.867 146.062 54.7292 146.091 54.59 146.09H52.2V151.7H65.8C71.16 151.7 77.09 148.11 77.09 139.03C77.09 129.95 71.13 126.37 65.77 126.37H52.2ZM62.87 132.92C62.87 132.37 63.3399 131.98 64.0299 131.98C67.6899 131.98 68.8799 133.28 68.8799 138.98C68.8799 144.68 67.6899 146.04 64.0299 146.04C63.8803 146.053 63.7298 146.034 63.588 145.984C63.4462 145.935 63.3164 145.856 63.207 145.754C63.0976 145.651 63.011 145.526 62.9529 145.388C62.8949 145.249 62.8666 145.1 62.87 144.95V132.92Z" fill="white"/>
<path d="M76.77 126.37V131.98H79.2C79.4551 131.98 79.7008 132.077 79.8867 132.251C80.0726 132.426 80.1846 132.665 80.2 132.92V145C80.2125 145.139 80.1959 145.278 80.1513 145.41C80.1067 145.542 80.035 145.663 79.9409 145.766C79.8467 145.869 79.7322 145.95 79.6046 146.006C79.477 146.062 79.3392 146.091 79.2 146.09H76.7V151.7H90.3099C95.6599 151.7 101.6 148.11 101.6 139.03C101.6 129.95 95.6599 126.37 90.3099 126.37H76.77ZM87.45 132.92C87.45 132.37 87.92 131.98 88.61 131.98C92.26 131.98 93.45 133.28 93.45 138.98C93.45 144.68 92.26 146.04 88.61 146.04C88.46 146.054 88.3088 146.036 88.1663 145.988C88.0238 145.939 87.8933 145.86 87.7835 145.757C87.6737 145.654 87.5872 145.529 87.5297 145.39C87.4722 145.25 87.445 145.101 87.45 144.95V132.92Z" fill="white"/>
<path d="M111.62 151.67V142.44H117.04C117.571 143.611 118.443 144.593 119.542 145.259C120.642 145.925 121.917 146.242 123.2 146.17C124.2 146.17 126.2 146.09 126.2 144.75C126.2 142.75 121.03 142.75 117.55 141.64C114.07 140.53 111.55 138.17 111.55 134.59C111.55 129.23 115.24 126.27 120.74 126.27C121.825 126.235 122.909 126.357 123.96 126.63C124.285 126.723 124.622 126.77 124.96 126.77C125.65 126.77 125.9 126.48 125.96 126.34H131.71V135.28H126.32C126.18 133.07 122.74 131.87 120.97 131.87C119.2 131.87 118.18 132.42 118.18 133.29C118.18 134.95 122.99 134.99 126.32 136C129.83 137.08 132.94 139.36 132.94 143.67C132.94 149.53 128.35 151.74 122.89 151.74C121.773 151.751 120.66 151.593 119.59 151.27C119.299 151.177 118.996 151.127 118.69 151.12C118.217 151.156 117.77 151.35 117.42 151.67H111.62Z" fill="white"/>
<path d="M146.46 131.95V126.37H157.9V131.98H156.05C155.901 131.967 155.752 131.986 155.611 132.035C155.469 132.084 155.34 132.161 155.231 132.263C155.122 132.365 155.035 132.488 154.976 132.625C154.918 132.763 154.888 132.911 154.89 133.06V143.55C154.89 149.27 151.6 151.91 145.96 151.91C140.78 151.91 136.19 149.85 136.19 143.55V132.92C136.175 132.665 136.063 132.426 135.877 132.251C135.691 132.077 135.445 131.98 135.19 131.98H132.6V126.37H145.81V131.98H144.58C143.89 131.98 143.42 132.37 143.42 132.92V143.59C143.42 145.87 144.62 146.2 146.42 146.2C147.87 146.2 149.32 145.87 149.32 143.59V133.06C149.322 132.911 149.293 132.763 149.234 132.625C149.175 132.488 149.089 132.365 148.979 132.263C148.87 132.161 148.741 132.084 148.6 132.035C148.459 131.986 148.309 131.967 148.16 131.98L146.46 131.95Z" fill="white"/>
<path d="M189.56 146.06V151.67H176.28V146.06H178.28C178.419 146.061 178.557 146.032 178.685 145.976C178.812 145.92 178.927 145.839 179.021 145.736C179.115 145.633 179.187 145.512 179.231 145.38C179.276 145.248 179.292 145.109 179.28 144.97V134.48L173.78 151.67H173.35L167.81 134.48V145.12C167.825 145.375 167.937 145.614 168.123 145.789C168.309 145.963 168.555 146.06 168.81 146.06H170.76V151.67H158.96V146.06H161.5C161.639 146.061 161.777 146.032 161.905 145.976C162.032 145.92 162.147 145.839 162.241 145.736C162.335 145.633 162.407 145.512 162.451 145.38C162.496 145.248 162.512 145.109 162.5 144.97V133.03C162.511 132.892 162.493 132.753 162.448 132.623C162.403 132.492 162.331 132.372 162.237 132.271C162.143 132.169 162.029 132.088 161.902 132.033C161.775 131.978 161.638 131.95 161.5 131.95H158.96V126.37H172.2C172.2 126.37 174.44 132.37 174.55 132.7L176.5 126.37H189.56V131.98H187.46C187.322 131.98 187.185 132.008 187.058 132.063C186.931 132.118 186.817 132.199 186.723 132.301C186.629 132.402 186.557 132.522 186.512 132.653C186.467 132.783 186.449 132.922 186.46 133.06V145.15C186.46 145.69 186.93 146.09 187.62 146.09L189.56 146.06Z" fill="white"/>
<path d="M221.2 146.06V151.67H207.94V146.06H209.94C210.079 146.061 210.217 146.032 210.345 145.976C210.472 145.92 210.587 145.839 210.681 145.736C210.775 145.633 210.847 145.512 210.891 145.38C210.936 145.248 210.952 145.109 210.94 144.97V134.48L205.44 151.67H205.01L199.47 134.48V145.12C199.485 145.375 199.597 145.614 199.783 145.789C199.969 145.963 200.215 146.06 200.47 146.06H202.42V151.67H190.65V146.06H193.2C193.339 146.061 193.477 146.032 193.605 145.976C193.732 145.92 193.847 145.839 193.941 145.736C194.035 145.633 194.107 145.512 194.151 145.38C194.196 145.248 194.212 145.109 194.2 144.97V133.03C194.211 132.892 194.193 132.753 194.148 132.623C194.103 132.492 194.031 132.372 193.937 132.271C193.843 132.169 193.729 132.088 193.602 132.033C193.475 131.978 193.338 131.95 193.2 131.95H190.67V126.37H203.91C203.91 126.37 206.15 132.37 206.26 132.7L208.2 126.37H221.2V131.98H219.1C218.962 131.98 218.825 132.008 218.698 132.063C218.571 132.118 218.457 132.199 218.363 132.301C218.269 132.402 218.197 132.522 218.152 132.653C218.106 132.783 218.089 132.922 218.1 133.06V145.15C218.107 145.29 218.143 145.427 218.206 145.552C218.269 145.677 218.357 145.787 218.466 145.876C218.574 145.964 218.7 146.029 218.835 146.066C218.97 146.103 219.111 146.111 219.25 146.09L221.2 146.06Z" fill="white"/>
<path d="M234.03 131.95C233.892 131.95 233.755 131.978 233.628 132.033C233.501 132.088 233.387 132.169 233.293 132.271C233.199 132.372 233.127 132.492 233.082 132.623C233.037 132.753 233.019 132.892 233.03 133.03V145.12C233.03 145.249 233.056 145.376 233.107 145.494C233.158 145.612 233.233 145.719 233.326 145.807C233.42 145.895 233.531 145.963 233.652 146.006C233.773 146.05 233.902 146.068 234.03 146.06H236.53V151.67H222.31V146.06H224.77C224.909 146.061 225.047 146.032 225.175 145.976C225.302 145.92 225.417 145.839 225.511 145.736C225.605 145.633 225.677 145.512 225.721 145.38C225.766 145.248 225.783 145.109 225.77 144.97V132.89C225.755 132.635 225.643 132.396 225.457 132.221C225.271 132.047 225.025 131.95 224.77 131.95H222.31V126.37H236.53V131.98L234.03 131.95Z" fill="white"/>
<path d="M242.57 146.06H245.03C245.169 146.061 245.307 146.032 245.435 145.976C245.562 145.92 245.677 145.839 245.771 145.736C245.865 145.633 245.937 145.512 245.981 145.38C246.026 145.248 246.043 145.109 246.03 144.97V133.37C246.03 132.43 245.56 132.25 245.16 132.25C243.16 132.25 242.88 136.25 242.88 137.5H237.6V126.37H261.73V137.48H256.45C256.45 136.28 256.16 132.23 254.17 132.23C253.77 132.23 253.3 132.41 253.3 133.35V145.15C253.315 145.405 253.427 145.644 253.613 145.819C253.799 145.993 254.045 146.09 254.3 146.09H256.79V151.7H242.57V146.06Z" fill="white"/>
<path d="M25.44 151.69C23.72 151.69 22.22 151.74 21.18 151.69C20.475 151.736 19.7687 151.621 19.1153 151.352C18.4618 151.084 17.8785 150.669 17.41 150.14C15.23 148.01 16.57 144.98 14.8 142.88C13.97 141.88 11.43 141.83 11 141.83H10.75V144.98C10.7452 145.13 10.7722 145.279 10.8291 145.417C10.886 145.555 10.9716 145.68 11.0803 145.783C11.1889 145.886 11.3181 145.965 11.4594 146.014C11.6007 146.064 11.7509 146.083 11.9 146.07H14.2V151.68H0V146.07H2.46002C2.59927 146.071 2.7371 146.042 2.86469 145.986C2.99227 145.93 3.10682 145.849 3.20096 145.746C3.2951 145.643 3.36677 145.522 3.41138 145.39C3.45599 145.258 3.47256 145.119 3.46002 144.98V132.9C3.44471 132.645 3.33263 132.406 3.14673 132.231C2.96083 132.057 2.71516 131.96 2.46002 131.96H0V126.37H16.2C19.71 126.37 25 127.71 25 133.17C25 136.72 22.43 138.42 19.42 139C20.4109 139.313 21.3484 139.775 22.2 140.37C22.7976 140.873 23.2735 141.506 23.5922 142.219C23.9108 142.933 24.0639 143.709 24.04 144.49C24.04 144.78 23.95 145.41 24.42 145.69C24.7074 145.915 25.056 146.047 25.42 146.07L25.44 151.69ZM16.75 134.04C16.75 133.04 15.96 131.95 13.93 131.95H11.72C11.5913 131.94 11.4619 131.957 11.3402 132C11.2185 132.043 11.107 132.111 11.013 132.2C10.9189 132.288 10.8443 132.395 10.7938 132.514C10.7434 132.633 10.7182 132.761 10.72 132.89V136.14H13.9C15.96 136.14 16.75 135.09 16.75 134.04Z" fill="white"/>
<path d="M26.54 146.06V151.66H26.92L27 146.06H26.54Z" fill="white"/>
<path d="M38.2701 131.95H41.2C43.77 131.95 45.94 134.44 45.94 137.37H51.08V126.37H26.55V131.98H29.01C29.2652 131.98 29.5108 132.077 29.6967 132.251C29.8826 132.426 29.9947 132.665 30.01 132.92V145C30.0226 145.139 30.006 145.278 29.9614 145.41C29.9168 145.542 29.8451 145.663 29.751 145.766C29.6568 145.869 29.5423 145.95 29.4147 146.006C29.2871 146.062 29.1493 146.091 29.01 146.09H26.55V151.7H51.08V140.7H45.94C45.94 143.63 43.77 146.13 41.2 146.13H38.2701C38.0149 146.13 37.7692 146.033 37.5833 145.859C37.3974 145.684 37.2854 145.445 37.2701 145.19V142.07H41.94V136.07H37.2701V133.07C37.253 132.929 37.2662 132.786 37.3087 132.65C37.3513 132.515 37.4223 132.39 37.5169 132.284C37.6115 132.178 37.7276 132.093 37.8575 132.036C37.9874 131.978 38.128 131.949 38.2701 131.95Z" fill="white"/>
</g>
<defs>
<clipPath id="clip0_579_1588">
<rect width="262.01" height="178.14" fill="white"/>
</clipPath>
</defs>
</svg>
