<svg width="68" height="171" viewBox="0 0 68 171" fill="none" xmlns="http://www.w3.org/2000/svg">
<path d="M66.032 128.166H54.032V155.238H2V168.966H66.032V128.166ZM66.032 65.1275L41.648 79.6235C40.016 72.7115 33.872 65.5115 22.64 65.5115C10.736 65.5115 2 73.7675 2 87.1115V117.064H66.032V103.432H43.28V93.4475L66.032 80.8715V65.1275ZM31.28 89.0315V103.432H14V89.0315C14 83.6555 17.264 79.5275 22.544 79.5275C28.016 79.5275 31.28 83.6555 31.28 89.0315ZM66.032 39.824H43.184V23.504C43.184 9.68 33.776 2 22.64 2C11.408 2 2 9.58401 2 23.504V53.456H66.032V39.824ZM31.184 25.424V39.824H14V25.424C14 20.048 17.264 15.92 22.64 15.92C27.92 15.92 31.184 20.048 31.184 25.424Z" stroke="#C1312B" stroke-width="3"/>
</svg>
