<svg width="68" height="175" viewBox="0 0 68 175" fill="none" xmlns="http://www.w3.org/2000/svg">
<path d="M66.032 159.208H43.184V142.887C43.184 129.063 33.776 121.383 22.64 121.383C11.408 121.383 2 128.967 2 142.887V172.84H66.032V159.208ZM31.184 144.807V159.208H14V144.807C14 139.431 17.264 135.303 22.64 135.303C27.92 135.303 31.184 139.431 31.184 144.807ZM66.032 58.9835L41.648 73.4795C40.016 66.5675 33.872 59.3675 22.64 59.3675C10.736 59.3675 2 67.6235 2 80.9675V110.92H66.032V97.2875H43.28V87.3035L66.032 74.7275V58.9835ZM31.28 82.8875V97.2875H14V82.8875C14 77.5115 17.264 73.3835 22.544 73.3835C28.016 73.3835 31.28 77.5115 31.28 82.8875ZM66.032 33.68H39.44V2.672H27.44V33.68H14V2H2V47.312H66.032V33.68Z" stroke="#C1312B" stroke-width="3"/>
</svg>
