<svg width="532" height="85" viewBox="0 0 532 85" fill="none" xmlns="http://www.w3.org/2000/svg">
<path d="M29.3712 78H40.2912V65.936H45.1792V57.096H40.2912V6.23999H26.7712L12.9392 57.096V65.936H29.3712V78ZM22.4032 57.096L30.6192 23.192H30.8272L29.4752 57.096H22.4032ZM57.4886 78H68.4086V6.032H61.7526L48.9606 13.832V23.712L57.4886 18.616V78ZM95.0667 78H104.635V16.64H104.843L112.019 78H120.235L127.411 16.64H127.619V78H138.643V6.23999H120.963L116.387 44.824H116.179L111.603 6.23999H95.0667V78ZM147.952 78H159.08V6.23999H147.952V78ZM168.44 78H192.256V68.64H179.568V6.23999H168.44V78ZM199.388 78H223.204V68.64H210.516V6.23999H199.388V78ZM230.336 78H241.464V6.23999H230.336V78ZM264.863 79.04C273.911 79.04 279.319 73.424 279.319 63.96V20.28C279.319 10.816 273.911 5.2 264.863 5.2C255.919 5.2 250.303 10.816 250.303 20.28V63.96C250.303 73.424 255.919 79.04 264.863 79.04ZM264.863 69.472C262.263 69.472 261.431 67.912 261.431 63.96V20.28C261.431 16.328 262.263 14.768 264.863 14.768C267.359 14.768 268.191 16.328 268.191 20.28V63.96C268.191 67.912 267.359 69.472 264.863 69.472ZM288.17 78H297.738V27.248H297.946L306.578 78H319.058V6.23999H309.49V49.088H309.282L301.898 6.23999H288.17V78ZM343.616 78H354.328L355.576 62.816H362.024L363.376 78H374.608L366.808 6.23999H351.416L343.616 78ZM356.096 53.456L358.696 17.056H358.904L361.504 53.456H356.096ZM395.143 79.04C404.087 79.04 409.391 73.632 409.391 64.584V49.296H398.575V64.376C398.575 68.12 397.743 69.472 395.455 69.472C393.063 69.472 392.231 68.12 392.231 64.376V19.864C392.231 16.12 393.063 14.768 395.455 14.768C397.743 14.768 398.575 16.12 398.575 19.864V31.72H409.391V19.656C409.391 10.608 404.087 5.2 395.143 5.2C386.303 5.2 381.103 10.608 381.103 19.656V64.584C381.103 73.632 386.303 79.04 395.143 79.04ZM417.65 78H428.778V45.136H429.818C433.874 45.136 435.33 46.28 435.33 51.272V78H446.458V51.896C446.458 45.656 444.482 41.808 440.53 39.936V39.728C444.482 37.856 446.458 34.008 446.458 27.664V21.112C446.458 11.232 441.57 6.23999 431.898 6.23999H417.65V78ZM428.778 35.776V15.6H430.858C434.394 15.6 435.33 16.848 435.33 21.84V29.536C435.33 34.424 434.394 35.776 430.858 35.776H428.778ZM455.199 78H480.055V68.64H466.327V44.096H478.183V34.736H466.327V15.6H480.055V6.23999H455.199V78ZM501.491 79.04C510.539 79.04 515.843 73.528 515.843 64.168V53.352C515.843 46.176 513.451 41.808 507.523 37.96L501.803 34.112C499.203 32.448 498.163 30.472 498.163 27.248V19.76C498.163 16.12 498.995 14.768 501.283 14.768C503.467 14.768 504.299 16.12 504.299 19.76V28.704H515.115V19.656C515.115 10.608 509.811 5.2 500.971 5.2C492.235 5.2 487.035 10.608 487.035 19.656V27.768C487.035 34.944 489.531 39.312 495.355 43.16L501.075 47.008C503.675 48.672 504.715 50.648 504.715 53.872V63.96C504.715 67.912 503.883 69.472 501.283 69.472C498.787 69.472 497.851 67.912 497.851 63.96V52.208H487.035V64.168C487.035 73.528 492.339 79.04 501.491 79.04Z" fill="#050607"/>
<path d="M31.3712 80H30.3712V81H31.3712V80ZM42.2912 80V81H43.2912V80H42.2912ZM42.2912 67.936V66.936H41.2912V67.936H42.2912ZM47.1792 67.936V68.936H48.1792V67.936H47.1792ZM47.1792 59.096H48.1792V58.096H47.1792V59.096ZM42.2912 59.096H41.2912V60.096H42.2912V59.096ZM42.2912 8.23999H43.2912V7.23999H42.2912V8.23999ZM28.7712 8.23999V7.23999H28.0069L27.8063 7.97754L28.7712 8.23999ZM14.9392 59.096L13.9743 58.8336L13.9392 58.9624V59.096H14.9392ZM14.9392 67.936H13.9392V68.936H14.9392V67.936ZM31.3712 67.936H32.3712V66.936H31.3712V67.936ZM24.4032 59.096L23.4314 58.8605L23.132 60.096H24.4032V59.096ZM32.6192 25.192V24.192H31.8326L31.6474 24.9565L32.6192 25.192ZM32.8272 25.192L33.8264 25.2318L33.8679 24.192H32.8272V25.192ZM31.4752 59.096V60.096H32.4361L32.4744 59.1358L31.4752 59.096ZM31.3712 81H42.2912V79H31.3712V81ZM43.2912 80V67.936H41.2912V80H43.2912ZM42.2912 68.936H47.1792V66.936H42.2912V68.936ZM48.1792 67.936V59.096H46.1792V67.936H48.1792ZM47.1792 58.096H42.2912V60.096H47.1792V58.096ZM43.2912 59.096V8.23999H41.2912V59.096H43.2912ZM42.2912 7.23999H28.7712V9.23999H42.2912V7.23999ZM27.8063 7.97754L13.9743 58.8336L15.9042 59.3584L29.7362 8.50244L27.8063 7.97754ZM13.9392 59.096V67.936H15.9392V59.096H13.9392ZM14.9392 68.936H31.3712V66.936H14.9392V68.936ZM30.3712 67.936V80H32.3712V67.936H30.3712ZM25.3751 59.3315L33.5911 25.4275L31.6474 24.9565L23.4314 58.8605L25.3751 59.3315ZM32.6192 26.192H32.8272V24.192H32.6192V26.192ZM31.828 25.1522L30.476 59.0562L32.4744 59.1358L33.8264 25.2318L31.828 25.1522ZM31.4752 58.096H24.4032V60.096H31.4752V58.096ZM59.4886 80H58.4886V81H59.4886V80ZM70.4086 80V81H71.4086V80H70.4086ZM70.4086 8.032H71.4086V7.032H70.4086V8.032ZM63.7526 8.032V7.032H63.4718L63.232 7.1782L63.7526 8.032ZM50.9606 15.832L50.44 14.9782L49.9606 15.2705V15.832H50.9606ZM50.9606 25.712H49.9606V27.4745L51.4736 26.5704L50.9606 25.712ZM59.4886 20.616H60.4886V18.8535L58.9756 19.7576L59.4886 20.616ZM59.4886 81H70.4086V79H59.4886V81ZM71.4086 80V8.032H69.4086V80H71.4086ZM70.4086 7.032H63.7526V9.032H70.4086V7.032ZM63.232 7.1782L50.44 14.9782L51.4812 16.6858L64.2732 8.88579L63.232 7.1782ZM49.9606 15.832V25.712H51.9606V15.832H49.9606ZM51.4736 26.5704L60.0016 21.4744L58.9756 19.7576L50.4476 24.8536L51.4736 26.5704ZM58.4886 20.616V80H60.4886V20.616H58.4886ZM97.0667 80H96.0667V81H97.0667V80ZM106.635 80V81H107.635V80H106.635ZM106.635 18.64V17.64H105.635V18.64H106.635ZM106.843 18.64L107.836 18.5238L107.733 17.64H106.843V18.64ZM114.019 80L113.025 80.1162L113.129 81H114.019V80ZM122.235 80V81H123.125L123.228 80.1162L122.235 80ZM129.411 18.64V17.64H128.521L128.417 18.5238L129.411 18.64ZM129.619 18.64H130.619V17.64H129.619V18.64ZM129.619 80H128.619V81H129.619V80ZM140.643 80V81H141.643V80H140.643ZM140.643 8.23999H141.643V7.23999H140.643V8.23999ZM122.963 8.23999V7.23999H122.074L121.97 8.12222L122.963 8.23999ZM118.387 46.824V47.824H119.275L119.38 46.9418L118.387 46.824ZM118.179 46.824L117.186 46.9418L117.29 47.824H118.179V46.824ZM113.603 8.23999L114.596 8.12222L114.491 7.23999H113.603V8.23999ZM97.0667 8.23999V7.23999H96.0667V8.23999H97.0667ZM97.0667 81H106.635V79H97.0667V81ZM107.635 80V18.64H105.635V80H107.635ZM106.635 19.64H106.843V17.64H106.635V19.64ZM105.849 18.7562L113.025 80.1162L115.012 79.8838L107.836 18.5238L105.849 18.7562ZM114.019 81H122.235V79H114.019V81ZM123.228 80.1162L130.404 18.7562L128.417 18.5238L121.241 79.8838L123.228 80.1162ZM129.411 19.64H129.619V17.64H129.411V19.64ZM128.619 18.64V80H130.619V18.64H128.619ZM129.619 81H140.643V79H129.619V81ZM141.643 80V8.23999H139.643V80H141.643ZM140.643 7.23999H122.963V9.23999H140.643V7.23999ZM121.97 8.12222L117.394 46.7062L119.38 46.9418L123.956 8.35777L121.97 8.12222ZM118.387 45.824H118.179V47.824H118.387V45.824ZM119.172 46.7062L114.596 8.12222L112.61 8.35777L117.186 46.9418L119.172 46.7062ZM113.603 7.23999H97.0667V9.23999H113.603V7.23999ZM96.0667 8.23999V80H98.0667V8.23999H96.0667ZM149.952 80H148.952V81H149.952V80ZM161.08 80V81H162.08V80H161.08ZM161.08 8.23999H162.08V7.23999H161.08V8.23999ZM149.952 8.23999V7.23999H148.952V8.23999H149.952ZM149.952 81H161.08V79H149.952V81ZM162.08 80V8.23999H160.08V80H162.08ZM161.08 7.23999H149.952V9.23999H161.08V7.23999ZM148.952 8.23999V80H150.952V8.23999H148.952ZM170.44 80H169.44V81H170.44V80ZM194.256 80V81H195.256V80H194.256ZM194.256 70.64H195.256V69.64H194.256V70.64ZM181.568 70.64H180.568V71.64H181.568V70.64ZM181.568 8.23999H182.568V7.23999H181.568V8.23999ZM170.44 8.23999V7.23999H169.44V8.23999H170.44ZM170.44 81H194.256V79H170.44V81ZM195.256 80V70.64H193.256V80H195.256ZM194.256 69.64H181.568V71.64H194.256V69.64ZM182.568 70.64V8.23999H180.568V70.64H182.568ZM181.568 7.23999H170.44V9.23999H181.568V7.23999ZM169.44 8.23999V80H171.44V8.23999H169.44ZM201.388 80H200.388V81H201.388V80ZM225.204 80V81H226.204V80H225.204ZM225.204 70.64H226.204V69.64H225.204V70.64ZM212.516 70.64H211.516V71.64H212.516V70.64ZM212.516 8.23999H213.516V7.23999H212.516V8.23999ZM201.388 8.23999V7.23999H200.388V8.23999H201.388ZM201.388 81H225.204V79H201.388V81ZM226.204 80V70.64H224.204V80H226.204ZM225.204 69.64H212.516V71.64H225.204V69.64ZM213.516 70.64V8.23999H211.516V70.64H213.516ZM212.516 7.23999H201.388V9.23999H212.516V7.23999ZM200.388 8.23999V80H202.388V8.23999H200.388ZM232.336 80H231.336V81H232.336V80ZM243.464 80V81H244.464V80H243.464ZM243.464 8.23999H244.464V7.23999H243.464V8.23999ZM232.336 8.23999V7.23999H231.336V8.23999H232.336ZM232.336 81H243.464V79H232.336V81ZM244.464 80V8.23999H242.464V80H244.464ZM243.464 7.23999H232.336V9.23999H243.464V7.23999ZM231.336 8.23999V80H233.336V8.23999H231.336ZM266.863 82.04C271.598 82.04 275.495 80.5654 278.205 77.7415C280.911 74.9227 282.319 70.8793 282.319 65.96H280.319C280.319 70.5047 279.023 74.0013 276.763 76.3565C274.507 78.7066 271.176 80.04 266.863 80.04V82.04ZM282.319 65.96V22.28H280.319V65.96H282.319ZM282.319 22.28C282.319 17.3607 280.911 13.3173 278.205 10.4985C275.495 7.67456 271.598 6.2 266.863 6.2V8.2C271.176 8.2 274.507 9.53343 276.763 11.8835C279.023 14.2387 280.319 17.7353 280.319 22.28H282.319ZM266.863 6.2C262.178 6.2 258.26 7.67557 255.513 10.4929C252.769 13.3077 251.303 17.3506 251.303 22.28H253.303C253.303 17.7454 254.645 14.2483 256.945 11.8891C259.242 9.53242 262.604 8.2 266.863 8.2V6.2ZM251.303 22.28V65.96H253.303V22.28H251.303ZM251.303 65.96C251.303 70.8894 252.769 74.9323 255.513 77.7471C258.26 80.5644 262.178 82.04 266.863 82.04V80.04C262.604 80.04 259.242 78.7076 256.945 76.3509C254.645 73.9917 253.303 70.4946 253.303 65.96H251.303ZM266.863 70.472C266.307 70.472 265.924 70.3877 265.654 70.2611C265.4 70.1418 265.198 69.9638 265.028 69.6817C264.65 69.0534 264.431 67.9244 264.431 65.96H262.431C262.431 67.9476 262.628 69.5746 263.316 70.7143C263.678 71.3162 264.172 71.7752 264.805 72.0719C265.423 72.3613 266.119 72.472 266.863 72.472V70.472ZM264.431 65.96V22.28H262.431V65.96H264.431ZM264.431 22.28C264.431 20.3156 264.65 19.1866 265.028 18.5583C265.198 18.2762 265.4 18.0981 265.654 17.9789C265.924 17.8523 266.307 17.768 266.863 17.768V15.768C266.119 15.768 265.423 15.8787 264.805 16.1681C264.172 16.4648 263.678 16.9238 263.316 17.5256C262.628 18.6654 262.431 20.2924 262.431 22.28H264.431ZM266.863 17.768C267.388 17.768 267.747 17.8508 268 17.9733C268.238 18.0888 268.433 18.264 268.601 18.549C268.973 19.1817 269.191 20.3176 269.191 22.28H271.191C271.191 20.2904 270.993 18.6702 270.325 17.535C269.973 16.936 269.492 16.4742 268.872 16.1737C268.267 15.8802 267.586 15.768 266.863 15.768V17.768ZM269.191 22.28V65.96H271.191V22.28H269.191ZM269.191 65.96C269.191 67.9224 268.973 69.0582 268.601 69.691C268.433 69.976 268.238 70.1512 268 70.2667C267.747 70.3892 267.388 70.472 266.863 70.472V72.472C267.586 72.472 268.267 72.3598 268.872 72.0663C269.492 71.7658 269.973 71.304 270.325 70.705C270.993 69.5698 271.191 67.9496 271.191 65.96H269.191ZM290.17 80H289.17V81H290.17V80ZM299.738 80V81H300.738V80H299.738ZM299.738 29.248V28.248H298.738V29.248H299.738ZM299.946 29.248L300.931 29.0803L300.79 28.248H299.946V29.248ZM308.578 80L307.592 80.1677L307.733 81H308.578V80ZM321.058 80V81H322.058V80H321.058ZM321.058 8.23999H322.058V7.23999H321.058V8.23999ZM311.49 8.23999V7.23999H310.49V8.23999H311.49ZM311.49 51.088V52.088H312.49V51.088H311.49ZM311.282 51.088L310.296 51.2578L310.439 52.088H311.282V51.088ZM303.898 8.23999L304.883 8.07017L304.74 7.23999H303.898V8.23999ZM290.17 8.23999V7.23999H289.17V8.23999H290.17ZM290.17 81H299.738V79H290.17V81ZM300.738 80V29.248H298.738V80H300.738ZM299.738 30.248H299.946V28.248H299.738V30.248ZM298.96 29.4157L307.592 80.1677L309.563 79.8323L300.931 29.0803L298.96 29.4157ZM308.578 81H321.058V79H308.578V81ZM322.058 80V8.23999H320.058V80H322.058ZM321.058 7.23999H311.49V9.23999H321.058V7.23999ZM310.49 8.23999V51.088H312.49V8.23999H310.49ZM311.49 50.088H311.282V52.088H311.49V50.088ZM312.267 50.9182L304.883 8.07017L302.912 8.40982L310.296 51.2578L312.267 50.9182ZM303.898 7.23999H290.17V9.23999H303.898V7.23999ZM289.17 8.23999V80H291.17V8.23999H289.17ZM345.616 80L344.622 79.8919L344.502 81H345.616V80ZM356.328 80V81H357.249L357.325 80.0819L356.328 80ZM357.576 64.816V63.816H356.655L356.58 64.7341L357.576 64.816ZM364.024 64.816L365.02 64.7273L364.939 63.816H364.024V64.816ZM365.376 80L364.38 80.0887L364.461 81H365.376V80ZM376.608 80V81H377.723L377.602 79.8919L376.608 80ZM368.808 8.23999L369.802 8.13193L369.705 7.23999H368.808V8.23999ZM353.416 8.23999V7.23999H352.519L352.422 8.13193L353.416 8.23999ZM358.096 55.456L357.099 55.3848L357.022 56.456H358.096V55.456ZM360.696 19.056V18.056H359.765L359.699 18.9848L360.696 19.056ZM360.904 19.056L361.902 18.9848L361.835 18.056H360.904V19.056ZM363.504 55.456V56.456H364.578L364.502 55.3848L363.504 55.456ZM345.616 81H356.328V79H345.616V81ZM357.325 80.0819L358.573 64.8979L356.58 64.7341L355.332 79.9181L357.325 80.0819ZM357.576 65.816H364.024V63.816H357.576V65.816ZM363.028 64.9047L364.38 80.0887L366.372 79.9113L365.02 64.7273L363.028 64.9047ZM365.376 81H376.608V79H365.376V81ZM377.602 79.8919L369.802 8.13193L367.814 8.34805L375.614 80.1081L377.602 79.8919ZM368.808 7.23999H353.416V9.23999H368.808V7.23999ZM352.422 8.13193L344.622 79.8919L346.61 80.1081L354.41 8.34805L352.422 8.13193ZM359.094 55.5272L361.694 19.1272L359.699 18.9848L357.099 55.3848L359.094 55.5272ZM360.696 20.056H360.904V18.056H360.696V20.056ZM359.907 19.1272L362.507 55.5272L364.502 55.3848L361.902 18.9848L359.907 19.1272ZM363.504 54.456H358.096V56.456H363.504V54.456ZM411.391 51.296H412.391V50.296H411.391V51.296ZM400.575 51.296V50.296H399.575V51.296H400.575ZM400.575 33.72H399.575V34.72H400.575V33.72ZM411.391 33.72V34.72H412.391V33.72H411.391ZM397.143 82.04C401.818 82.04 405.661 80.6223 408.334 77.9065C411.005 75.1928 412.391 71.3022 412.391 66.584H410.391C410.391 70.9138 409.126 74.2512 406.909 76.5035C404.694 78.7537 401.412 80.04 397.143 80.04V82.04ZM412.391 66.584V51.296H410.391V66.584H412.391ZM411.391 50.296H400.575V52.296H411.391V50.296ZM399.575 51.296V66.376H401.575V51.296H399.575ZM399.575 66.376C399.575 68.2311 399.358 69.2556 399.021 69.8054C398.871 70.0494 398.699 70.1969 398.488 70.2949C398.26 70.4003 397.935 70.472 397.455 70.472V72.472C398.12 72.472 398.756 72.3747 399.329 72.1096C399.916 71.8371 400.381 71.4126 400.726 70.8506C401.377 69.7884 401.575 68.2649 401.575 66.376H399.575ZM397.455 70.472C396.465 70.472 396.054 70.2104 395.793 69.7955C395.45 69.2504 395.231 68.2333 395.231 66.376H393.231C393.231 68.2627 393.429 69.7936 394.1 70.8605C394.853 72.0576 396.053 72.472 397.455 72.472V70.472ZM395.231 66.376V21.864H393.231V66.376H395.231ZM395.231 21.864C395.231 20.0067 395.45 18.9896 395.793 18.4444C396.054 18.0296 396.465 17.768 397.455 17.768V15.768C396.053 15.768 394.853 16.1824 394.1 17.3795C393.429 18.4464 393.231 19.9773 393.231 21.864H395.231ZM397.455 17.768C397.935 17.768 398.26 17.8397 398.488 17.9451C398.699 18.0431 398.871 18.1906 399.021 18.4346C399.358 18.9844 399.575 20.0089 399.575 21.864H401.575C401.575 19.9751 401.377 18.4516 400.726 17.3894C400.381 16.8274 399.916 16.4029 399.329 16.1304C398.756 15.8653 398.12 15.768 397.455 15.768V17.768ZM399.575 21.864V33.72H401.575V21.864H399.575ZM400.575 34.72H411.391V32.72H400.575V34.72ZM412.391 33.72V21.656H410.391V33.72H412.391ZM412.391 21.656C412.391 16.9378 411.005 13.0472 408.334 10.3335C405.661 7.61774 401.818 6.2 397.143 6.2V8.2C401.412 8.2 404.694 9.48625 406.909 11.7365C409.126 13.9888 410.391 17.3262 410.391 21.656H412.391ZM397.143 6.2C392.517 6.2 388.724 7.62007 386.09 10.3393C383.46 13.0542 382.103 16.9432 382.103 21.656H384.103C384.103 17.3208 385.346 13.9818 387.527 11.7307C389.703 9.48392 392.93 8.2 397.143 8.2V6.2ZM382.103 21.656V66.584H384.103V21.656H382.103ZM382.103 66.584C382.103 71.2968 383.46 75.1858 386.09 77.9007C388.724 80.6199 392.517 82.04 397.143 82.04V80.04C392.93 80.04 389.703 78.7561 387.527 76.5093C385.346 74.2582 384.103 70.9192 384.103 66.584H382.103ZM419.65 80H418.65V81H419.65V80ZM430.778 80V81H431.778V80H430.778ZM430.778 47.136V46.136H429.778V47.136H430.778ZM437.33 80H436.33V81H437.33V80ZM448.458 80V81H449.458V80H448.458ZM442.53 41.936H441.53V42.5688L442.101 42.8397L442.53 41.936ZM442.53 41.728L442.101 40.8243L441.53 41.0952V41.728H442.53ZM419.65 8.23999V7.23999H418.65V8.23999H419.65ZM430.778 37.776H429.778V38.776H430.778V37.776ZM430.778 17.6V16.6H429.778V17.6H430.778ZM419.65 81H430.778V79H419.65V81ZM431.778 80V47.136H429.778V80H431.778ZM430.778 48.136H431.818V46.136H430.778V48.136ZM431.818 48.136C433.822 48.136 434.812 48.4377 435.372 49.0235C435.951 49.6281 436.33 50.7989 436.33 53.272H438.33C438.33 50.7531 437.98 48.8559 436.817 47.6405C435.636 46.4063 433.869 46.136 431.818 46.136V48.136ZM436.33 53.272V80H438.33V53.272H436.33ZM437.33 81H448.458V79H437.33V81ZM449.458 80V53.896H447.458V80H449.458ZM449.458 53.896C449.458 50.6792 448.949 47.9898 447.87 45.8308C446.78 43.6514 445.132 42.0624 442.958 41.0323L442.101 42.8397C443.879 43.6816 445.195 44.9526 446.081 46.7252C446.978 48.5182 447.458 50.8728 447.458 53.896H449.458ZM443.53 41.936V41.728H441.53V41.936H443.53ZM442.958 42.6317C445.133 41.6014 446.781 40.0116 447.871 37.8179C448.95 35.6456 449.458 32.9306 449.458 29.664H447.458C447.458 32.7414 446.977 35.1224 446.08 36.9281C445.194 38.7124 443.878 39.9826 442.101 40.8243L442.958 42.6317ZM449.458 29.664V23.112H447.458V29.664H449.458ZM449.458 23.112C449.458 18.0205 448.198 14.0074 445.519 11.2714C442.837 8.53155 438.896 7.23999 433.898 7.23999V9.23999C438.571 9.23999 441.91 10.4444 444.09 12.6706C446.273 14.9006 447.458 18.3235 447.458 23.112H449.458ZM433.898 7.23999H419.65V9.23999H433.898V7.23999ZM418.65 8.23999V80H420.65V8.23999H418.65ZM431.778 37.776V17.6H429.778V37.776H431.778ZM430.778 18.6H432.858V16.6H430.778V18.6ZM432.858 18.6C434.563 18.6 435.233 18.9133 435.609 19.4335C435.825 19.7332 436.014 20.1939 436.143 20.931C436.271 21.6669 436.33 22.6148 436.33 23.84H438.33C438.33 22.5692 438.271 21.4891 438.113 20.587C437.956 19.686 437.69 18.8988 437.23 18.2625C436.254 16.9107 434.688 16.6 432.858 16.6V18.6ZM436.33 23.84V31.536H438.33V23.84H436.33ZM436.33 31.536C436.33 34.0014 436.074 35.2506 435.605 35.9088C435.223 36.4456 434.543 36.776 432.858 36.776V38.776C434.708 38.776 436.264 38.4304 437.234 37.0692C438.117 35.8294 438.33 33.9586 438.33 31.536H436.33ZM432.858 36.776H430.778V38.776H432.858V36.776ZM457.199 80H456.199V81H457.199V80ZM482.055 80V81H483.055V80H482.055ZM482.055 70.64H483.055V69.64H482.055V70.64ZM468.327 70.64H467.327V71.64H468.327V70.64ZM468.327 46.096V45.096H467.327V46.096H468.327ZM480.183 46.096V47.096H481.183V46.096H480.183ZM480.183 36.736H481.183V35.736H480.183V36.736ZM468.327 36.736H467.327V37.736H468.327V36.736ZM468.327 17.6V16.6H467.327V17.6H468.327ZM482.055 17.6V18.6H483.055V17.6H482.055ZM482.055 8.23999H483.055V7.23999H482.055V8.23999ZM457.199 8.23999V7.23999H456.199V8.23999H457.199ZM457.199 81H482.055V79H457.199V81ZM483.055 80V70.64H481.055V80H483.055ZM482.055 69.64H468.327V71.64H482.055V69.64ZM469.327 70.64V46.096H467.327V70.64H469.327ZM468.327 47.096H480.183V45.096H468.327V47.096ZM481.183 46.096V36.736H479.183V46.096H481.183ZM480.183 35.736H468.327V37.736H480.183V35.736ZM469.327 36.736V17.6H467.327V36.736H469.327ZM468.327 18.6H482.055V16.6H468.327V18.6ZM483.055 17.6V8.23999H481.055V17.6H483.055ZM482.055 7.23999H457.199V9.23999H482.055V7.23999ZM456.199 8.23999V80H458.199V8.23999H456.199ZM509.523 39.96L508.964 40.7897L508.971 40.7943L508.978 40.7988L509.523 39.96ZM503.803 36.112L504.361 35.2823L504.351 35.2759L504.342 35.2697L503.803 36.112ZM506.299 30.704H505.299V31.704H506.299V30.704ZM517.115 30.704V31.704H518.115V30.704H517.115ZM497.355 45.16L497.913 44.3302L497.906 44.3257L497.355 45.16ZM503.075 49.008L502.516 49.8377L502.526 49.8441L502.536 49.8503L503.075 49.008ZM499.851 54.208H500.851V53.208H499.851V54.208ZM489.035 54.208V53.208H488.035V54.208H489.035ZM503.491 82.04C508.22 82.04 512.093 80.5944 514.779 77.8081C517.462 75.0267 518.843 71.0333 518.843 66.168H516.843C516.843 70.6627 515.572 74.1053 513.34 76.4199C511.113 78.7296 507.809 80.04 503.491 80.04V82.04ZM518.843 66.168V55.352H516.843V66.168H518.843ZM518.843 55.352C518.843 51.6526 518.226 48.5895 516.785 45.9314C515.344 43.2729 513.125 41.1062 510.067 39.1212L508.978 40.7988C511.848 42.6618 513.79 44.603 515.026 46.8846C516.263 49.1665 516.843 51.8754 516.843 55.352H518.843ZM510.081 39.1303L504.361 35.2823L503.244 36.9417L508.964 40.7897L510.081 39.1303ZM504.342 35.2697C503.145 34.5036 502.375 33.7107 501.891 32.7971C501.406 31.8794 501.163 30.7539 501.163 29.248H499.163C499.163 30.9661 499.44 32.4406 500.124 33.7329C500.81 35.0293 501.861 36.0564 503.264 36.9543L504.342 35.2697ZM501.163 29.248V21.76H499.163V29.248H501.163ZM501.163 21.76C501.163 19.96 501.38 18.9634 501.713 18.4277C501.968 18.0197 502.36 17.768 503.283 17.768V15.768C501.917 15.768 500.75 16.1923 500.016 17.3702C499.362 18.4206 499.163 19.92 499.163 21.76H501.163ZM503.283 17.768C503.73 17.768 504.033 17.838 504.245 17.9388C504.442 18.033 504.608 18.1765 504.755 18.4176C505.082 18.9581 505.299 19.9621 505.299 21.76H507.299C507.299 19.9179 507.099 18.4259 506.465 17.3804C506.13 16.8285 505.678 16.4065 505.106 16.1335C504.547 15.867 503.927 15.768 503.283 15.768V17.768ZM505.299 21.76V30.704H507.299V21.76H505.299ZM506.299 31.704H517.115V29.704H506.299V31.704ZM518.115 30.704V21.656H516.115V30.704H518.115ZM518.115 21.656C518.115 16.9379 516.728 13.0485 514.072 10.3354C511.413 7.61964 507.597 6.2 502.971 6.2V8.2C507.184 8.2 510.44 9.48435 512.643 11.7346C514.849 13.9875 516.115 17.3261 516.115 21.656H518.115ZM502.971 6.2C498.393 6.2 494.626 7.62205 492.006 10.3412C489.392 13.0555 488.035 16.9433 488.035 21.656H490.035C490.035 17.3207 491.278 13.9805 493.447 11.7288C495.611 9.48194 498.812 8.2 502.971 8.2V6.2ZM488.035 21.656V29.768H490.035V21.656H488.035ZM488.035 29.768C488.035 33.4738 488.68 36.5366 490.133 39.1921C491.586 41.8461 493.801 44.0106 496.803 45.9943L497.906 44.3257C495.084 42.4614 493.139 40.5179 491.888 38.2319C490.637 35.9474 490.035 33.2382 490.035 29.768H488.035ZM496.796 45.9897L502.516 49.8377L503.633 48.1783L497.913 44.3303L496.796 45.9897ZM502.536 49.8503C503.733 50.6164 504.502 51.4093 504.986 52.3229C505.472 53.2406 505.715 54.3661 505.715 55.872H507.715C507.715 54.1539 507.438 52.6794 506.753 51.3871C506.067 50.0907 505.017 49.0636 503.614 48.1657L502.536 49.8503ZM505.715 55.872V65.96H507.715V55.872H505.715ZM505.715 65.96C505.715 67.9244 505.496 69.0534 505.117 69.6817C504.947 69.9638 504.746 70.1418 504.491 70.2611C504.221 70.3877 503.839 70.472 503.283 70.472V72.472C504.026 72.472 504.723 72.3613 505.34 72.0719C505.973 71.7752 506.467 71.3162 506.83 70.7143C507.517 69.5746 507.715 67.9476 507.715 65.96H505.715ZM503.283 70.472C502.275 70.472 501.795 70.1809 501.481 69.6725C501.092 69.0419 500.851 67.9094 500.851 65.96H498.851C498.851 67.9625 499.077 69.5861 499.78 70.7235C500.558 71.9831 501.795 72.472 503.283 72.472V70.472ZM500.851 65.96V54.208H498.851V65.96H500.851ZM499.851 53.208H489.035V55.208H499.851V53.208ZM488.035 54.208V66.168H490.035V54.208H488.035ZM488.035 66.168C488.035 71.0333 489.416 75.028 492.113 77.81C494.814 80.5963 498.712 82.04 503.491 82.04V80.04C499.117 80.04 495.788 78.7277 493.549 76.418C491.305 74.104 490.035 70.6627 490.035 66.168H488.035Z" fill="#050607"/>
</svg>
